<mxfile host="app.diagrams.net" modified="2021-01-17T18:37:13.362Z" agent="5.0 (Windows NT 10.0; Win64; x64) AppleWebKit/537.36 (KHTML, like Gecko) Chrome/87.0.4280.141 Safari/537.36" etag="NM_s0GolXA8dtceF0yrb" version="14.2.4" type="github" pages="4">
  <diagram id="y1ZKQq2cylJ6jiFuspsI" name="Task_1">
    <mxGraphModel dx="1730" dy="967" grid="1" gridSize="10" guides="1" tooltips="1" connect="1" arrows="1" fold="1" page="1" pageScale="1" pageWidth="827" pageHeight="1169" math="0" shadow="0">
      <root>
        <mxCell id="0" />
        <mxCell id="1" parent="0" />
        <mxCell id="PXRlA08QTSHr8fRWqITG-1" value="Начало" style="ellipse;whiteSpace=wrap;html=1;" vertex="1" parent="1">
          <mxGeometry x="380" y="90" width="120" height="40" as="geometry" />
        </mxCell>
        <mxCell id="PXRlA08QTSHr8fRWqITG-15" style="edgeStyle=orthogonalEdgeStyle;rounded=0;orthogonalLoop=1;jettySize=auto;html=1;exitX=0.5;exitY=1;exitDx=0;exitDy=0;entryX=0.5;entryY=0;entryDx=0;entryDy=0;" edge="1" parent="1" source="PXRlA08QTSHr8fRWqITG-2" target="PXRlA08QTSHr8fRWqITG-22">
          <mxGeometry relative="1" as="geometry" />
        </mxCell>
        <mxCell id="PXRlA08QTSHr8fRWqITG-2" value="Вывод&lt;br&gt;Сколько чисел будет в участвовать в операции? 1 или 2?&lt;br&gt;" style="shape=parallelogram;perimeter=parallelogramPerimeter;whiteSpace=wrap;html=1;fixedSize=1;" vertex="1" parent="1">
          <mxGeometry x="320" y="150" width="240" height="60" as="geometry" />
        </mxCell>
        <mxCell id="PXRlA08QTSHr8fRWqITG-12" style="edgeStyle=orthogonalEdgeStyle;rounded=0;orthogonalLoop=1;jettySize=auto;html=1;exitX=1;exitY=0.5;exitDx=0;exitDy=0;entryX=0.5;entryY=0;entryDx=0;entryDy=0;" edge="1" parent="1" source="PXRlA08QTSHr8fRWqITG-3" target="PXRlA08QTSHr8fRWqITG-11">
          <mxGeometry relative="1" as="geometry" />
        </mxCell>
        <mxCell id="PXRlA08QTSHr8fRWqITG-21" style="edgeStyle=orthogonalEdgeStyle;rounded=0;orthogonalLoop=1;jettySize=auto;html=1;exitX=0;exitY=0.5;exitDx=0;exitDy=0;entryX=0.5;entryY=0;entryDx=0;entryDy=0;" edge="1" parent="1" source="PXRlA08QTSHr8fRWqITG-3" target="PXRlA08QTSHr8fRWqITG-17">
          <mxGeometry relative="1" as="geometry" />
        </mxCell>
        <mxCell id="PXRlA08QTSHr8fRWqITG-3" value="num in (1,2)" style="rhombus;whiteSpace=wrap;html=1;" vertex="1" parent="1">
          <mxGeometry x="380" y="310" width="120" height="80" as="geometry" />
        </mxCell>
        <mxCell id="PXRlA08QTSHr8fRWqITG-8" value="Да" style="text;html=1;strokeColor=none;fillColor=none;align=center;verticalAlign=middle;whiteSpace=wrap;rounded=0;" vertex="1" parent="1">
          <mxGeometry x="360" y="320" width="40" height="20" as="geometry" />
        </mxCell>
        <mxCell id="PXRlA08QTSHr8fRWqITG-14" style="edgeStyle=orthogonalEdgeStyle;rounded=0;orthogonalLoop=1;jettySize=auto;html=1;entryX=0.5;entryY=0;entryDx=0;entryDy=0;exitX=0.5;exitY=1;exitDx=0;exitDy=0;" edge="1" parent="1" source="PXRlA08QTSHr8fRWqITG-1" target="PXRlA08QTSHr8fRWqITG-2">
          <mxGeometry relative="1" as="geometry">
            <mxPoint x="440" y="130" as="sourcePoint" />
          </mxGeometry>
        </mxCell>
        <mxCell id="Y_4QNKwAnGGjgrXhPrMw-1" style="edgeStyle=orthogonalEdgeStyle;rounded=0;orthogonalLoop=1;jettySize=auto;html=1;exitX=0.5;exitY=1;exitDx=0;exitDy=0;entryX=0.5;entryY=0;entryDx=0;entryDy=0;" edge="1" parent="1" source="PXRlA08QTSHr8fRWqITG-11" target="PXRlA08QTSHr8fRWqITG-70">
          <mxGeometry relative="1" as="geometry">
            <Array as="points">
              <mxPoint x="640" y="1080" />
              <mxPoint x="330" y="1080" />
            </Array>
          </mxGeometry>
        </mxCell>
        <mxCell id="PXRlA08QTSHr8fRWqITG-11" value="Вывод&lt;br&gt;Программа может принимать не более двух чисел." style="shape=parallelogram;perimeter=parallelogramPerimeter;whiteSpace=wrap;html=1;fixedSize=1;" vertex="1" parent="1">
          <mxGeometry x="570" y="370" width="140" height="60" as="geometry" />
        </mxCell>
        <mxCell id="PXRlA08QTSHr8fRWqITG-27" style="edgeStyle=orthogonalEdgeStyle;rounded=0;orthogonalLoop=1;jettySize=auto;html=1;exitX=1;exitY=0.5;exitDx=0;exitDy=0;" edge="1" parent="1" source="PXRlA08QTSHr8fRWqITG-17" target="PXRlA08QTSHr8fRWqITG-31">
          <mxGeometry relative="1" as="geometry" />
        </mxCell>
        <mxCell id="PXRlA08QTSHr8fRWqITG-49" style="edgeStyle=orthogonalEdgeStyle;rounded=0;orthogonalLoop=1;jettySize=auto;html=1;exitX=0;exitY=0.5;exitDx=0;exitDy=0;" edge="1" parent="1" source="PXRlA08QTSHr8fRWqITG-17" target="PXRlA08QTSHr8fRWqITG-47">
          <mxGeometry relative="1" as="geometry" />
        </mxCell>
        <mxCell id="PXRlA08QTSHr8fRWqITG-17" value="num = 1" style="rhombus;whiteSpace=wrap;html=1;" vertex="1" parent="1">
          <mxGeometry x="260" y="370" width="120" height="80" as="geometry" />
        </mxCell>
        <mxCell id="PXRlA08QTSHr8fRWqITG-18" value="Нет" style="text;html=1;strokeColor=none;fillColor=none;align=center;verticalAlign=middle;whiteSpace=wrap;rounded=0;" vertex="1" parent="1">
          <mxGeometry x="240" y="380" width="40" height="20" as="geometry" />
        </mxCell>
        <mxCell id="PXRlA08QTSHr8fRWqITG-19" value="Да" style="text;html=1;strokeColor=none;fillColor=none;align=center;verticalAlign=middle;whiteSpace=wrap;rounded=0;" vertex="1" parent="1">
          <mxGeometry x="360" y="380" width="40" height="20" as="geometry" />
        </mxCell>
        <mxCell id="PXRlA08QTSHr8fRWqITG-20" value="Нет" style="text;html=1;align=center;verticalAlign=middle;resizable=0;points=[];autosize=1;" vertex="1" parent="1">
          <mxGeometry x="480" y="320" width="40" height="20" as="geometry" />
        </mxCell>
        <mxCell id="PXRlA08QTSHr8fRWqITG-23" style="edgeStyle=orthogonalEdgeStyle;rounded=0;orthogonalLoop=1;jettySize=auto;html=1;exitX=0.5;exitY=1;exitDx=0;exitDy=0;entryX=0.5;entryY=0;entryDx=0;entryDy=0;" edge="1" parent="1" source="PXRlA08QTSHr8fRWqITG-22" target="PXRlA08QTSHr8fRWqITG-3">
          <mxGeometry relative="1" as="geometry" />
        </mxCell>
        <mxCell id="PXRlA08QTSHr8fRWqITG-22" value="Ввод&lt;br&gt;num" style="shape=parallelogram;perimeter=parallelogramPerimeter;whiteSpace=wrap;html=1;fixedSize=1;" vertex="1" parent="1">
          <mxGeometry x="380" y="230" width="120" height="60" as="geometry" />
        </mxCell>
        <mxCell id="PXRlA08QTSHr8fRWqITG-29" style="edgeStyle=orthogonalEdgeStyle;rounded=0;orthogonalLoop=1;jettySize=auto;html=1;exitX=0.5;exitY=1;exitDx=0;exitDy=0;entryX=0.5;entryY=0;entryDx=0;entryDy=0;" edge="1" parent="1" source="PXRlA08QTSHr8fRWqITG-24" target="PXRlA08QTSHr8fRWqITG-28">
          <mxGeometry relative="1" as="geometry" />
        </mxCell>
        <mxCell id="PXRlA08QTSHr8fRWqITG-24" value="Вывод&lt;br&gt;Введите на сколько будет будет производить побитовый сдвиг (отрицательное число - сдвиг вправо, положительное - влево)" style="shape=parallelogram;perimeter=parallelogramPerimeter;whiteSpace=wrap;html=1;fixedSize=1;" vertex="1" parent="1">
          <mxGeometry x="320" y="600" width="240" height="80" as="geometry" />
        </mxCell>
        <mxCell id="PXRlA08QTSHr8fRWqITG-42" style="edgeStyle=orthogonalEdgeStyle;rounded=0;orthogonalLoop=1;jettySize=auto;html=1;exitX=0.5;exitY=1;exitDx=0;exitDy=0;entryX=0.5;entryY=0;entryDx=0;entryDy=0;" edge="1" parent="1" source="PXRlA08QTSHr8fRWqITG-28" target="PXRlA08QTSHr8fRWqITG-39">
          <mxGeometry relative="1" as="geometry" />
        </mxCell>
        <mxCell id="PXRlA08QTSHr8fRWqITG-28" value="Ввод&lt;br&gt;conv" style="shape=parallelogram;perimeter=parallelogramPerimeter;whiteSpace=wrap;html=1;fixedSize=1;" vertex="1" parent="1">
          <mxGeometry x="380" y="700" width="120" height="60" as="geometry" />
        </mxCell>
        <mxCell id="PXRlA08QTSHr8fRWqITG-33" style="edgeStyle=orthogonalEdgeStyle;rounded=0;orthogonalLoop=1;jettySize=auto;html=1;exitX=0.5;exitY=1;exitDx=0;exitDy=0;entryX=0.5;entryY=0;entryDx=0;entryDy=0;" edge="1" parent="1" source="PXRlA08QTSHr8fRWqITG-31" target="PXRlA08QTSHr8fRWqITG-32">
          <mxGeometry relative="1" as="geometry" />
        </mxCell>
        <mxCell id="PXRlA08QTSHr8fRWqITG-31" value="Вывод&lt;br&gt;С каким числом будет проводить побитовый сдвиг?" style="shape=parallelogram;perimeter=parallelogramPerimeter;whiteSpace=wrap;html=1;fixedSize=1;" vertex="1" parent="1">
          <mxGeometry x="360" y="440" width="160" height="60" as="geometry" />
        </mxCell>
        <mxCell id="PXRlA08QTSHr8fRWqITG-34" style="edgeStyle=orthogonalEdgeStyle;rounded=0;orthogonalLoop=1;jettySize=auto;html=1;exitX=0.5;exitY=1;exitDx=0;exitDy=0;entryX=0.5;entryY=0;entryDx=0;entryDy=0;" edge="1" parent="1" source="PXRlA08QTSHr8fRWqITG-32" target="PXRlA08QTSHr8fRWqITG-24">
          <mxGeometry relative="1" as="geometry" />
        </mxCell>
        <mxCell id="PXRlA08QTSHr8fRWqITG-32" value="Ввод&lt;br&gt;a" style="shape=parallelogram;perimeter=parallelogramPerimeter;whiteSpace=wrap;html=1;fixedSize=1;" vertex="1" parent="1">
          <mxGeometry x="380" y="520" width="120" height="60" as="geometry" />
        </mxCell>
        <mxCell id="PXRlA08QTSHr8fRWqITG-45" style="edgeStyle=orthogonalEdgeStyle;rounded=0;orthogonalLoop=1;jettySize=auto;html=1;exitX=1;exitY=0.5;exitDx=0;exitDy=0;entryX=0.5;entryY=0;entryDx=0;entryDy=0;" edge="1" parent="1" source="PXRlA08QTSHr8fRWqITG-39" target="PXRlA08QTSHr8fRWqITG-61">
          <mxGeometry relative="1" as="geometry">
            <mxPoint x="560" y="840" as="targetPoint" />
          </mxGeometry>
        </mxCell>
        <mxCell id="PXRlA08QTSHr8fRWqITG-46" style="edgeStyle=orthogonalEdgeStyle;rounded=0;orthogonalLoop=1;jettySize=auto;html=1;exitX=0;exitY=0.5;exitDx=0;exitDy=0;entryX=0.5;entryY=0;entryDx=0;entryDy=0;" edge="1" parent="1" source="PXRlA08QTSHr8fRWqITG-39" target="PXRlA08QTSHr8fRWqITG-60">
          <mxGeometry relative="1" as="geometry">
            <mxPoint x="320" y="840" as="targetPoint" />
          </mxGeometry>
        </mxCell>
        <mxCell id="PXRlA08QTSHr8fRWqITG-39" value="conv &amp;gt; 0" style="rhombus;whiteSpace=wrap;html=1;" vertex="1" parent="1">
          <mxGeometry x="380" y="780" width="120" height="80" as="geometry" />
        </mxCell>
        <mxCell id="PXRlA08QTSHr8fRWqITG-40" value="Нет" style="text;html=1;strokeColor=none;fillColor=none;align=center;verticalAlign=middle;whiteSpace=wrap;rounded=0;" vertex="1" parent="1">
          <mxGeometry x="360" y="790" width="40" height="20" as="geometry" />
        </mxCell>
        <mxCell id="PXRlA08QTSHr8fRWqITG-41" value="Да" style="text;html=1;strokeColor=none;fillColor=none;align=center;verticalAlign=middle;whiteSpace=wrap;rounded=0;" vertex="1" parent="1">
          <mxGeometry x="480" y="790" width="40" height="20" as="geometry" />
        </mxCell>
        <mxCell id="PXRlA08QTSHr8fRWqITG-50" style="edgeStyle=orthogonalEdgeStyle;rounded=0;orthogonalLoop=1;jettySize=auto;html=1;exitX=0.5;exitY=1;exitDx=0;exitDy=0;entryX=0.5;entryY=0;entryDx=0;entryDy=0;" edge="1" parent="1" source="PXRlA08QTSHr8fRWqITG-47" target="PXRlA08QTSHr8fRWqITG-48">
          <mxGeometry relative="1" as="geometry" />
        </mxCell>
        <mxCell id="PXRlA08QTSHr8fRWqITG-47" value="Вывод&lt;br&gt;Введите два числа через пробел" style="shape=parallelogram;perimeter=parallelogramPerimeter;whiteSpace=wrap;html=1;fixedSize=1;" vertex="1" parent="1">
          <mxGeometry x="80" y="440" width="180" height="60" as="geometry" />
        </mxCell>
        <mxCell id="PXRlA08QTSHr8fRWqITG-52" style="edgeStyle=orthogonalEdgeStyle;rounded=0;orthogonalLoop=1;jettySize=auto;html=1;exitX=0.5;exitY=1;exitDx=0;exitDy=0;entryX=0.5;entryY=0;entryDx=0;entryDy=0;" edge="1" parent="1" source="PXRlA08QTSHr8fRWqITG-48" target="PXRlA08QTSHr8fRWqITG-51">
          <mxGeometry relative="1" as="geometry" />
        </mxCell>
        <mxCell id="PXRlA08QTSHr8fRWqITG-48" value="Ввод&lt;br&gt;a, b" style="shape=parallelogram;perimeter=parallelogramPerimeter;whiteSpace=wrap;html=1;fixedSize=1;" vertex="1" parent="1">
          <mxGeometry x="110" y="520" width="120" height="60" as="geometry" />
        </mxCell>
        <mxCell id="PXRlA08QTSHr8fRWqITG-54" style="edgeStyle=orthogonalEdgeStyle;rounded=0;orthogonalLoop=1;jettySize=auto;html=1;exitX=0.5;exitY=1;exitDx=0;exitDy=0;entryX=0.5;entryY=0;entryDx=0;entryDy=0;" edge="1" parent="1" source="PXRlA08QTSHr8fRWqITG-51" target="PXRlA08QTSHr8fRWqITG-53">
          <mxGeometry relative="1" as="geometry" />
        </mxCell>
        <mxCell id="PXRlA08QTSHr8fRWqITG-51" value="Вывод&lt;br&gt;Какую операцию производим? (1 - И, 2 - ИЛИ, 3 - Исключающее ИЛИ)" style="shape=parallelogram;perimeter=parallelogramPerimeter;whiteSpace=wrap;html=1;fixedSize=1;" vertex="1" parent="1">
          <mxGeometry x="20" y="600" width="300" height="60" as="geometry" />
        </mxCell>
        <mxCell id="PXRlA08QTSHr8fRWqITG-69" style="edgeStyle=orthogonalEdgeStyle;rounded=0;orthogonalLoop=1;jettySize=auto;html=1;exitX=0.5;exitY=1;exitDx=0;exitDy=0;entryX=0.5;entryY=0;entryDx=0;entryDy=0;" edge="1" parent="1" source="PXRlA08QTSHr8fRWqITG-53" target="PXRlA08QTSHr8fRWqITG-55">
          <mxGeometry relative="1" as="geometry" />
        </mxCell>
        <mxCell id="PXRlA08QTSHr8fRWqITG-53" value="Ввод&lt;br&gt;oper" style="shape=parallelogram;perimeter=parallelogramPerimeter;whiteSpace=wrap;html=1;fixedSize=1;" vertex="1" parent="1">
          <mxGeometry x="110" y="680" width="120" height="60" as="geometry" />
        </mxCell>
        <mxCell id="PXRlA08QTSHr8fRWqITG-66" style="edgeStyle=orthogonalEdgeStyle;rounded=0;orthogonalLoop=1;jettySize=auto;html=1;exitX=1;exitY=0.5;exitDx=0;exitDy=0;entryX=0.5;entryY=0;entryDx=0;entryDy=0;" edge="1" parent="1" source="PXRlA08QTSHr8fRWqITG-55" target="PXRlA08QTSHr8fRWqITG-63">
          <mxGeometry relative="1" as="geometry" />
        </mxCell>
        <mxCell id="PXRlA08QTSHr8fRWqITG-67" style="edgeStyle=orthogonalEdgeStyle;rounded=0;orthogonalLoop=1;jettySize=auto;html=1;entryX=0.5;entryY=0;entryDx=0;entryDy=0;" edge="1" parent="1" source="PXRlA08QTSHr8fRWqITG-55" target="PXRlA08QTSHr8fRWqITG-65">
          <mxGeometry relative="1" as="geometry" />
        </mxCell>
        <mxCell id="PXRlA08QTSHr8fRWqITG-68" style="edgeStyle=orthogonalEdgeStyle;rounded=0;orthogonalLoop=1;jettySize=auto;html=1;entryX=0.5;entryY=0;entryDx=0;entryDy=0;exitX=0;exitY=0.5;exitDx=0;exitDy=0;" edge="1" parent="1" source="PXRlA08QTSHr8fRWqITG-55" target="PXRlA08QTSHr8fRWqITG-64">
          <mxGeometry relative="1" as="geometry" />
        </mxCell>
        <mxCell id="PXRlA08QTSHr8fRWqITG-55" value="oper = ?" style="rhombus;whiteSpace=wrap;html=1;" vertex="1" parent="1">
          <mxGeometry x="110" y="760" width="120" height="80" as="geometry" />
        </mxCell>
        <mxCell id="PXRlA08QTSHr8fRWqITG-56" value="1" style="text;html=1;strokeColor=none;fillColor=none;align=center;verticalAlign=middle;whiteSpace=wrap;rounded=0;" vertex="1" parent="1">
          <mxGeometry x="90" y="770" width="40" height="20" as="geometry" />
        </mxCell>
        <mxCell id="PXRlA08QTSHr8fRWqITG-57" value="3" style="text;html=1;strokeColor=none;fillColor=none;align=center;verticalAlign=middle;whiteSpace=wrap;rounded=0;" vertex="1" parent="1">
          <mxGeometry x="210" y="770" width="40" height="20" as="geometry" />
        </mxCell>
        <mxCell id="PXRlA08QTSHr8fRWqITG-58" value="2" style="text;html=1;strokeColor=none;fillColor=none;align=center;verticalAlign=middle;whiteSpace=wrap;rounded=0;" vertex="1" parent="1">
          <mxGeometry x="130" y="830" width="40" height="20" as="geometry" />
        </mxCell>
        <mxCell id="PXRlA08QTSHr8fRWqITG-71" style="edgeStyle=orthogonalEdgeStyle;rounded=0;orthogonalLoop=1;jettySize=auto;html=1;exitX=0.5;exitY=1;exitDx=0;exitDy=0;entryX=0.5;entryY=0;entryDx=0;entryDy=0;" edge="1" parent="1" source="PXRlA08QTSHr8fRWqITG-60" target="PXRlA08QTSHr8fRWqITG-70">
          <mxGeometry relative="1" as="geometry" />
        </mxCell>
        <mxCell id="PXRlA08QTSHr8fRWqITG-60" value="Вывод&lt;br&gt;Результат a &amp;gt;&amp;gt; conv" style="shape=parallelogram;perimeter=parallelogramPerimeter;whiteSpace=wrap;html=1;fixedSize=1;" vertex="1" parent="1">
          <mxGeometry x="260" y="850" width="140" height="60" as="geometry" />
        </mxCell>
        <mxCell id="PXRlA08QTSHr8fRWqITG-75" style="edgeStyle=orthogonalEdgeStyle;rounded=0;orthogonalLoop=1;jettySize=auto;html=1;exitX=0.5;exitY=1;exitDx=0;exitDy=0;" edge="1" parent="1" source="PXRlA08QTSHr8fRWqITG-61">
          <mxGeometry relative="1" as="geometry">
            <mxPoint x="330" y="1100" as="targetPoint" />
            <Array as="points">
              <mxPoint x="560" y="1080" />
              <mxPoint x="330" y="1080" />
            </Array>
          </mxGeometry>
        </mxCell>
        <mxCell id="PXRlA08QTSHr8fRWqITG-61" value="Вывод&lt;br&gt;Результат a &amp;lt;&amp;lt; conv" style="shape=parallelogram;perimeter=parallelogramPerimeter;whiteSpace=wrap;html=1;fixedSize=1;" vertex="1" parent="1">
          <mxGeometry x="490" y="840" width="140" height="60" as="geometry" />
        </mxCell>
        <mxCell id="PXRlA08QTSHr8fRWqITG-72" style="edgeStyle=orthogonalEdgeStyle;rounded=0;orthogonalLoop=1;jettySize=auto;html=1;exitX=0.5;exitY=1;exitDx=0;exitDy=0;" edge="1" parent="1" source="PXRlA08QTSHr8fRWqITG-63">
          <mxGeometry relative="1" as="geometry">
            <mxPoint x="330" y="1100" as="targetPoint" />
            <Array as="points">
              <mxPoint x="250" y="1080" />
              <mxPoint x="330" y="1080" />
            </Array>
          </mxGeometry>
        </mxCell>
        <mxCell id="PXRlA08QTSHr8fRWqITG-63" value="Вывод&lt;br&gt;Результат a ^ b" style="shape=parallelogram;perimeter=parallelogramPerimeter;whiteSpace=wrap;html=1;fixedSize=1;" vertex="1" parent="1">
          <mxGeometry x="180" y="990" width="140" height="60" as="geometry" />
        </mxCell>
        <mxCell id="PXRlA08QTSHr8fRWqITG-74" style="edgeStyle=orthogonalEdgeStyle;rounded=0;orthogonalLoop=1;jettySize=auto;html=1;exitX=0.5;exitY=1;exitDx=0;exitDy=0;" edge="1" parent="1" source="PXRlA08QTSHr8fRWqITG-64">
          <mxGeometry relative="1" as="geometry">
            <mxPoint x="330" y="1100" as="targetPoint" />
            <Array as="points">
              <mxPoint x="70" y="1080" />
              <mxPoint x="330" y="1080" />
            </Array>
          </mxGeometry>
        </mxCell>
        <mxCell id="PXRlA08QTSHr8fRWqITG-64" value="Вывод&lt;br&gt;Результат a &amp;amp; b" style="shape=parallelogram;perimeter=parallelogramPerimeter;whiteSpace=wrap;html=1;fixedSize=1;" vertex="1" parent="1">
          <mxGeometry y="850" width="140" height="60" as="geometry" />
        </mxCell>
        <mxCell id="PXRlA08QTSHr8fRWqITG-73" style="edgeStyle=orthogonalEdgeStyle;rounded=0;orthogonalLoop=1;jettySize=auto;html=1;exitX=0.5;exitY=1;exitDx=0;exitDy=0;entryX=0.5;entryY=0;entryDx=0;entryDy=0;" edge="1" parent="1" source="PXRlA08QTSHr8fRWqITG-65" target="PXRlA08QTSHr8fRWqITG-70">
          <mxGeometry relative="1" as="geometry">
            <Array as="points">
              <mxPoint x="170" y="1080" />
              <mxPoint x="330" y="1080" />
            </Array>
          </mxGeometry>
        </mxCell>
        <mxCell id="PXRlA08QTSHr8fRWqITG-65" value="Вывод&lt;br&gt;Результат a | b" style="shape=parallelogram;perimeter=parallelogramPerimeter;whiteSpace=wrap;html=1;fixedSize=1;" vertex="1" parent="1">
          <mxGeometry x="100" y="920" width="140" height="60" as="geometry" />
        </mxCell>
        <mxCell id="PXRlA08QTSHr8fRWqITG-70" value="Конец" style="ellipse;whiteSpace=wrap;html=1;" vertex="1" parent="1">
          <mxGeometry x="270" y="1100" width="120" height="40" as="geometry" />
        </mxCell>
        <mxCell id="9-AaGhTWzdZ84uWnZnKR-1" value="Task 1&lt;br&gt;&lt;h3 style=&quot;box-sizing: border-box ; font-family: &amp;#34;roboto&amp;#34; , &amp;#34;san francisco&amp;#34; , &amp;#34;helvetica neue&amp;#34; , &amp;#34;helvetica&amp;#34; , &amp;#34;arial&amp;#34; ; font-weight: 500 ; line-height: 24px ; color: rgb(63 , 83 , 104) ; margin-top: 20px ; margin-bottom: 10px ; font-size: 17px ; background-color: rgb(255 , 255 , 255)&quot;&gt;Выполнить логические побитовые операции «И», «ИЛИ» и др. над числами 5 и 6. Выполнить над числом 5 побитовый сдвиг вправо и влево на два знака.&lt;/h3&gt;&lt;div&gt;&lt;br&gt;&lt;/div&gt;" style="text;html=1;strokeColor=none;fillColor=none;align=center;verticalAlign=middle;whiteSpace=wrap;rounded=0;" vertex="1" parent="1">
          <mxGeometry x="50" y="60" width="230" height="170" as="geometry" />
        </mxCell>
      </root>
    </mxGraphModel>
  </diagram>
  <diagram id="SULzJnaaAZ_yhp1dZG_w" name="Task_4">
    <mxGraphModel dx="1038" dy="580" grid="1" gridSize="10" guides="1" tooltips="1" connect="1" arrows="1" fold="1" page="1" pageScale="1" pageWidth="827" pageHeight="1169" math="0" shadow="0">
      <root>
        <mxCell id="ahczgDFFr_j6vzqF3LkM-0" />
        <mxCell id="ahczgDFFr_j6vzqF3LkM-1" parent="ahczgDFFr_j6vzqF3LkM-0" />
        <mxCell id="ahczgDFFr_j6vzqF3LkM-9" style="edgeStyle=orthogonalEdgeStyle;rounded=0;orthogonalLoop=1;jettySize=auto;html=1;exitX=0.5;exitY=1;exitDx=0;exitDy=0;entryX=0.5;entryY=0;entryDx=0;entryDy=0;" edge="1" parent="ahczgDFFr_j6vzqF3LkM-1" source="ahczgDFFr_j6vzqF3LkM-2" target="ahczgDFFr_j6vzqF3LkM-3">
          <mxGeometry relative="1" as="geometry" />
        </mxCell>
        <mxCell id="ahczgDFFr_j6vzqF3LkM-2" value="Начало" style="ellipse;whiteSpace=wrap;html=1;" vertex="1" parent="ahczgDFFr_j6vzqF3LkM-1">
          <mxGeometry x="354" y="10" width="120" height="40" as="geometry" />
        </mxCell>
        <mxCell id="ahczgDFFr_j6vzqF3LkM-10" style="edgeStyle=orthogonalEdgeStyle;rounded=0;orthogonalLoop=1;jettySize=auto;html=1;exitX=0.5;exitY=1;exitDx=0;exitDy=0;entryX=0.5;entryY=0;entryDx=0;entryDy=0;" edge="1" parent="ahczgDFFr_j6vzqF3LkM-1" source="ahczgDFFr_j6vzqF3LkM-3" target="ahczgDFFr_j6vzqF3LkM-4">
          <mxGeometry relative="1" as="geometry" />
        </mxCell>
        <mxCell id="ahczgDFFr_j6vzqF3LkM-3" value="Вывод&lt;br&gt;Введите две английские буквы и я вычислю расстояние между ними" style="shape=parallelogram;perimeter=parallelogramPerimeter;whiteSpace=wrap;html=1;fixedSize=1;" vertex="1" parent="ahczgDFFr_j6vzqF3LkM-1">
          <mxGeometry x="298" y="70" width="232" height="60" as="geometry" />
        </mxCell>
        <mxCell id="ahczgDFFr_j6vzqF3LkM-11" style="edgeStyle=orthogonalEdgeStyle;rounded=0;orthogonalLoop=1;jettySize=auto;html=1;exitX=0.5;exitY=1;exitDx=0;exitDy=0;entryX=0.5;entryY=0;entryDx=0;entryDy=0;" edge="1" parent="ahczgDFFr_j6vzqF3LkM-1" source="ahczgDFFr_j6vzqF3LkM-4" target="ahczgDFFr_j6vzqF3LkM-5">
          <mxGeometry relative="1" as="geometry" />
        </mxCell>
        <mxCell id="ahczgDFFr_j6vzqF3LkM-4" value="Ввод&lt;br&gt;letter1, letter2" style="shape=parallelogram;perimeter=parallelogramPerimeter;whiteSpace=wrap;html=1;fixedSize=1;" vertex="1" parent="ahczgDFFr_j6vzqF3LkM-1">
          <mxGeometry x="354" y="150" width="120" height="60" as="geometry" />
        </mxCell>
        <mxCell id="ahczgDFFr_j6vzqF3LkM-12" style="edgeStyle=orthogonalEdgeStyle;rounded=0;orthogonalLoop=1;jettySize=auto;html=1;exitX=0.5;exitY=1;exitDx=0;exitDy=0;" edge="1" parent="ahczgDFFr_j6vzqF3LkM-1" source="ahczgDFFr_j6vzqF3LkM-5" target="ahczgDFFr_j6vzqF3LkM-6">
          <mxGeometry relative="1" as="geometry" />
        </mxCell>
        <mxCell id="ahczgDFFr_j6vzqF3LkM-5" value="Поиск letter1 в алфавите (записать в переменную a)" style="rounded=0;whiteSpace=wrap;html=1;" vertex="1" parent="ahczgDFFr_j6vzqF3LkM-1">
          <mxGeometry x="354" y="230" width="120" height="60" as="geometry" />
        </mxCell>
        <mxCell id="ahczgDFFr_j6vzqF3LkM-13" style="edgeStyle=orthogonalEdgeStyle;rounded=0;orthogonalLoop=1;jettySize=auto;html=1;exitX=0.5;exitY=1;exitDx=0;exitDy=0;entryX=0.5;entryY=0;entryDx=0;entryDy=0;" edge="1" parent="ahczgDFFr_j6vzqF3LkM-1" source="ahczgDFFr_j6vzqF3LkM-6" target="ahczgDFFr_j6vzqF3LkM-7">
          <mxGeometry relative="1" as="geometry" />
        </mxCell>
        <mxCell id="ahczgDFFr_j6vzqF3LkM-6" value="Поиск letter2 в алфавите (записать в переменную b)" style="rounded=0;whiteSpace=wrap;html=1;" vertex="1" parent="ahczgDFFr_j6vzqF3LkM-1">
          <mxGeometry x="354" y="310" width="120" height="60" as="geometry" />
        </mxCell>
        <mxCell id="ahczgDFFr_j6vzqF3LkM-14" style="edgeStyle=orthogonalEdgeStyle;rounded=0;orthogonalLoop=1;jettySize=auto;html=1;exitX=0.5;exitY=1;exitDx=0;exitDy=0;entryX=0.5;entryY=0;entryDx=0;entryDy=0;" edge="1" parent="ahczgDFFr_j6vzqF3LkM-1" source="ahczgDFFr_j6vzqF3LkM-7" target="ahczgDFFr_j6vzqF3LkM-8">
          <mxGeometry relative="1" as="geometry" />
        </mxCell>
        <mxCell id="ahczgDFFr_j6vzqF3LkM-7" value="c = |a - b|" style="rounded=0;whiteSpace=wrap;html=1;" vertex="1" parent="ahczgDFFr_j6vzqF3LkM-1">
          <mxGeometry x="354" y="390" width="120" height="60" as="geometry" />
        </mxCell>
        <mxCell id="ahczgDFFr_j6vzqF3LkM-8" value="Конец" style="ellipse;whiteSpace=wrap;html=1;" vertex="1" parent="ahczgDFFr_j6vzqF3LkM-1">
          <mxGeometry x="354" y="470" width="120" height="40" as="geometry" />
        </mxCell>
        <mxCell id="qCN_aX-i-wECn1p7OuC1-0" value="Task 4&lt;br&gt;&lt;h3 style=&quot;box-sizing: border-box ; font-family: &amp;#34;roboto&amp;#34; , &amp;#34;san francisco&amp;#34; , &amp;#34;helvetica neue&amp;#34; , &amp;#34;helvetica&amp;#34; , &amp;#34;arial&amp;#34; ; font-weight: 500 ; line-height: 24px ; color: rgb(63 , 83 , 104) ; margin-top: 20px ; margin-bottom: 10px ; font-size: 17px ; background-color: rgb(255 , 255 , 255)&quot;&gt;Пользователь вводит две буквы. Определить, на каких местах алфавита они стоят, и сколько между ними находится букв.&lt;/h3&gt;&lt;div&gt;&lt;br&gt;&lt;/div&gt;" style="text;html=1;strokeColor=none;fillColor=none;align=center;verticalAlign=middle;whiteSpace=wrap;rounded=0;" vertex="1" parent="ahczgDFFr_j6vzqF3LkM-1">
          <mxGeometry x="50" y="30" width="230" height="170" as="geometry" />
        </mxCell>
      </root>
    </mxGraphModel>
  </diagram>
  <diagram id="-Ighju85-B6W26pf2iFx" name="Task_6">
    <mxGraphModel dx="1730" dy="967" grid="1" gridSize="10" guides="1" tooltips="1" connect="1" arrows="1" fold="1" page="1" pageScale="1" pageWidth="827" pageHeight="1169" math="0" shadow="0">
      <root>
        <mxCell id="NLjMdLl4oUd3L64wdZM3-0" />
        <mxCell id="NLjMdLl4oUd3L64wdZM3-1" parent="NLjMdLl4oUd3L64wdZM3-0" />
        <mxCell id="NLjMdLl4oUd3L64wdZM3-10" style="edgeStyle=orthogonalEdgeStyle;rounded=0;orthogonalLoop=1;jettySize=auto;html=1;exitX=0.5;exitY=1;exitDx=0;exitDy=0;entryX=0.5;entryY=0;entryDx=0;entryDy=0;" edge="1" parent="NLjMdLl4oUd3L64wdZM3-1" source="NLjMdLl4oUd3L64wdZM3-2" target="NLjMdLl4oUd3L64wdZM3-3">
          <mxGeometry relative="1" as="geometry">
            <mxPoint x="264" y="70" as="targetPoint" />
          </mxGeometry>
        </mxCell>
        <mxCell id="NLjMdLl4oUd3L64wdZM3-2" value="Начало" style="ellipse;whiteSpace=wrap;html=1;" vertex="1" parent="NLjMdLl4oUd3L64wdZM3-1">
          <mxGeometry x="204" y="10" width="120" height="40" as="geometry" />
        </mxCell>
        <mxCell id="NLjMdLl4oUd3L64wdZM3-12" style="edgeStyle=orthogonalEdgeStyle;rounded=0;orthogonalLoop=1;jettySize=auto;html=1;exitX=0.5;exitY=1;exitDx=0;exitDy=0;entryX=0.5;entryY=0;entryDx=0;entryDy=0;" edge="1" parent="NLjMdLl4oUd3L64wdZM3-1" source="NLjMdLl4oUd3L64wdZM3-3" target="NLjMdLl4oUd3L64wdZM3-4">
          <mxGeometry relative="1" as="geometry" />
        </mxCell>
        <mxCell id="NLjMdLl4oUd3L64wdZM3-3" value="Вывод&lt;br&gt;Введите длинны трёх отрезков и я пойму, могут ли составлять треугольник" style="shape=parallelogram;perimeter=parallelogramPerimeter;whiteSpace=wrap;html=1;fixedSize=1;" vertex="1" parent="NLjMdLl4oUd3L64wdZM3-1">
          <mxGeometry x="113" y="70" width="312" height="60" as="geometry" />
        </mxCell>
        <mxCell id="NLjMdLl4oUd3L64wdZM3-13" style="edgeStyle=orthogonalEdgeStyle;rounded=0;orthogonalLoop=1;jettySize=auto;html=1;exitX=0.5;exitY=1;exitDx=0;exitDy=0;entryX=0.5;entryY=0;entryDx=0;entryDy=0;" edge="1" parent="NLjMdLl4oUd3L64wdZM3-1" source="NLjMdLl4oUd3L64wdZM3-4" target="NLjMdLl4oUd3L64wdZM3-5">
          <mxGeometry relative="1" as="geometry" />
        </mxCell>
        <mxCell id="NLjMdLl4oUd3L64wdZM3-4" value="Ввод&lt;br&gt;len1, len2, len3" style="shape=parallelogram;perimeter=parallelogramPerimeter;whiteSpace=wrap;html=1;fixedSize=1;" vertex="1" parent="NLjMdLl4oUd3L64wdZM3-1">
          <mxGeometry x="209" y="150" width="120" height="60" as="geometry" />
        </mxCell>
        <mxCell id="NLjMdLl4oUd3L64wdZM3-17" style="edgeStyle=orthogonalEdgeStyle;rounded=0;orthogonalLoop=1;jettySize=auto;html=1;exitX=1;exitY=0.5;exitDx=0;exitDy=0;entryX=0.5;entryY=0;entryDx=0;entryDy=0;" edge="1" parent="NLjMdLl4oUd3L64wdZM3-1" source="NLjMdLl4oUd3L64wdZM3-5" target="NLjMdLl4oUd3L64wdZM3-14">
          <mxGeometry relative="1" as="geometry" />
        </mxCell>
        <mxCell id="NLjMdLl4oUd3L64wdZM3-50" style="edgeStyle=orthogonalEdgeStyle;rounded=0;orthogonalLoop=1;jettySize=auto;html=1;exitX=0;exitY=0.5;exitDx=0;exitDy=0;entryX=0.5;entryY=0;entryDx=0;entryDy=0;" edge="1" parent="NLjMdLl4oUd3L64wdZM3-1" source="NLjMdLl4oUd3L64wdZM3-5" target="NLjMdLl4oUd3L64wdZM3-48">
          <mxGeometry relative="1" as="geometry" />
        </mxCell>
        <mxCell id="NLjMdLl4oUd3L64wdZM3-5" value="len1 + len2 &amp;gt; len3" style="rhombus;whiteSpace=wrap;html=1;" vertex="1" parent="NLjMdLl4oUd3L64wdZM3-1">
          <mxGeometry x="209" y="230" width="120" height="80" as="geometry" />
        </mxCell>
        <mxCell id="NLjMdLl4oUd3L64wdZM3-6" value="Нет" style="text;html=1;strokeColor=none;fillColor=none;align=center;verticalAlign=middle;whiteSpace=wrap;rounded=0;" vertex="1" parent="NLjMdLl4oUd3L64wdZM3-1">
          <mxGeometry x="189" y="240" width="40" height="20" as="geometry" />
        </mxCell>
        <mxCell id="NLjMdLl4oUd3L64wdZM3-7" value="Да" style="text;html=1;strokeColor=none;fillColor=none;align=center;verticalAlign=middle;whiteSpace=wrap;rounded=0;" vertex="1" parent="NLjMdLl4oUd3L64wdZM3-1">
          <mxGeometry x="309" y="240" width="40" height="20" as="geometry" />
        </mxCell>
        <mxCell id="NLjMdLl4oUd3L64wdZM3-21" style="edgeStyle=orthogonalEdgeStyle;rounded=0;orthogonalLoop=1;jettySize=auto;html=1;exitX=1;exitY=0.5;exitDx=0;exitDy=0;entryX=0.5;entryY=0;entryDx=0;entryDy=0;" edge="1" parent="NLjMdLl4oUd3L64wdZM3-1" source="NLjMdLl4oUd3L64wdZM3-14" target="NLjMdLl4oUd3L64wdZM3-18">
          <mxGeometry relative="1" as="geometry" />
        </mxCell>
        <mxCell id="NLjMdLl4oUd3L64wdZM3-51" style="edgeStyle=orthogonalEdgeStyle;rounded=0;orthogonalLoop=1;jettySize=auto;html=1;exitX=0;exitY=0.5;exitDx=0;exitDy=0;entryX=0.5;entryY=0;entryDx=0;entryDy=0;" edge="1" parent="NLjMdLl4oUd3L64wdZM3-1" source="NLjMdLl4oUd3L64wdZM3-14" target="NLjMdLl4oUd3L64wdZM3-48">
          <mxGeometry relative="1" as="geometry" />
        </mxCell>
        <mxCell id="NLjMdLl4oUd3L64wdZM3-14" value="len1 + len3 &amp;gt; len2" style="rhombus;whiteSpace=wrap;html=1;" vertex="1" parent="NLjMdLl4oUd3L64wdZM3-1">
          <mxGeometry x="289" y="310" width="120" height="80" as="geometry" />
        </mxCell>
        <mxCell id="NLjMdLl4oUd3L64wdZM3-15" value="Нет" style="text;html=1;strokeColor=none;fillColor=none;align=center;verticalAlign=middle;whiteSpace=wrap;rounded=0;" vertex="1" parent="NLjMdLl4oUd3L64wdZM3-1">
          <mxGeometry x="269" y="320" width="40" height="20" as="geometry" />
        </mxCell>
        <mxCell id="NLjMdLl4oUd3L64wdZM3-16" value="Да" style="text;html=1;strokeColor=none;fillColor=none;align=center;verticalAlign=middle;whiteSpace=wrap;rounded=0;" vertex="1" parent="NLjMdLl4oUd3L64wdZM3-1">
          <mxGeometry x="389" y="320" width="40" height="20" as="geometry" />
        </mxCell>
        <mxCell id="NLjMdLl4oUd3L64wdZM3-28" style="edgeStyle=orthogonalEdgeStyle;rounded=0;orthogonalLoop=1;jettySize=auto;html=1;exitX=1;exitY=0.5;exitDx=0;exitDy=0;entryX=0.5;entryY=0;entryDx=0;entryDy=0;" edge="1" parent="NLjMdLl4oUd3L64wdZM3-1" source="NLjMdLl4oUd3L64wdZM3-18" target="NLjMdLl4oUd3L64wdZM3-24">
          <mxGeometry relative="1" as="geometry" />
        </mxCell>
        <mxCell id="NLjMdLl4oUd3L64wdZM3-52" style="edgeStyle=orthogonalEdgeStyle;rounded=0;orthogonalLoop=1;jettySize=auto;html=1;exitX=0;exitY=0.5;exitDx=0;exitDy=0;" edge="1" parent="NLjMdLl4oUd3L64wdZM3-1" source="NLjMdLl4oUd3L64wdZM3-18" target="NLjMdLl4oUd3L64wdZM3-48">
          <mxGeometry relative="1" as="geometry" />
        </mxCell>
        <mxCell id="NLjMdLl4oUd3L64wdZM3-18" value="len2 + len3 &amp;gt; len1" style="rhombus;whiteSpace=wrap;html=1;" vertex="1" parent="NLjMdLl4oUd3L64wdZM3-1">
          <mxGeometry x="369" y="390" width="120" height="80" as="geometry" />
        </mxCell>
        <mxCell id="NLjMdLl4oUd3L64wdZM3-19" value="Нет" style="text;html=1;strokeColor=none;fillColor=none;align=center;verticalAlign=middle;whiteSpace=wrap;rounded=0;" vertex="1" parent="NLjMdLl4oUd3L64wdZM3-1">
          <mxGeometry x="349" y="400" width="40" height="20" as="geometry" />
        </mxCell>
        <mxCell id="NLjMdLl4oUd3L64wdZM3-20" value="Да" style="text;html=1;strokeColor=none;fillColor=none;align=center;verticalAlign=middle;whiteSpace=wrap;rounded=0;" vertex="1" parent="NLjMdLl4oUd3L64wdZM3-1">
          <mxGeometry x="469" y="400" width="40" height="20" as="geometry" />
        </mxCell>
        <mxCell id="NLjMdLl4oUd3L64wdZM3-35" style="edgeStyle=orthogonalEdgeStyle;rounded=0;orthogonalLoop=1;jettySize=auto;html=1;exitX=0;exitY=0.5;exitDx=0;exitDy=0;entryX=0.5;entryY=0;entryDx=0;entryDy=0;" edge="1" parent="NLjMdLl4oUd3L64wdZM3-1" source="NLjMdLl4oUd3L64wdZM3-24" target="NLjMdLl4oUd3L64wdZM3-32">
          <mxGeometry relative="1" as="geometry" />
        </mxCell>
        <mxCell id="NLjMdLl4oUd3L64wdZM3-36" style="edgeStyle=orthogonalEdgeStyle;rounded=0;orthogonalLoop=1;jettySize=auto;html=1;exitX=1;exitY=0.5;exitDx=0;exitDy=0;entryX=0.5;entryY=0;entryDx=0;entryDy=0;" edge="1" parent="NLjMdLl4oUd3L64wdZM3-1" source="NLjMdLl4oUd3L64wdZM3-24" target="NLjMdLl4oUd3L64wdZM3-29">
          <mxGeometry relative="1" as="geometry" />
        </mxCell>
        <mxCell id="NLjMdLl4oUd3L64wdZM3-24" value="len1 = len2" style="rhombus;whiteSpace=wrap;html=1;" vertex="1" parent="NLjMdLl4oUd3L64wdZM3-1">
          <mxGeometry x="449" y="470" width="120" height="80" as="geometry" />
        </mxCell>
        <mxCell id="NLjMdLl4oUd3L64wdZM3-25" value="Нет" style="text;html=1;strokeColor=none;fillColor=none;align=center;verticalAlign=middle;whiteSpace=wrap;rounded=0;" vertex="1" parent="NLjMdLl4oUd3L64wdZM3-1">
          <mxGeometry x="429" y="480" width="40" height="20" as="geometry" />
        </mxCell>
        <mxCell id="NLjMdLl4oUd3L64wdZM3-26" value="Да" style="text;html=1;strokeColor=none;fillColor=none;align=center;verticalAlign=middle;whiteSpace=wrap;rounded=0;" vertex="1" parent="NLjMdLl4oUd3L64wdZM3-1">
          <mxGeometry x="549" y="480" width="40" height="20" as="geometry" />
        </mxCell>
        <mxCell id="NLjMdLl4oUd3L64wdZM3-38" style="edgeStyle=orthogonalEdgeStyle;rounded=0;orthogonalLoop=1;jettySize=auto;html=1;exitX=1;exitY=0.5;exitDx=0;exitDy=0;entryX=0.5;entryY=0;entryDx=0;entryDy=0;" edge="1" parent="NLjMdLl4oUd3L64wdZM3-1" source="NLjMdLl4oUd3L64wdZM3-29" target="NLjMdLl4oUd3L64wdZM3-37">
          <mxGeometry relative="1" as="geometry" />
        </mxCell>
        <mxCell id="NLjMdLl4oUd3L64wdZM3-42" style="edgeStyle=orthogonalEdgeStyle;rounded=0;orthogonalLoop=1;jettySize=auto;html=1;exitX=0;exitY=0.5;exitDx=0;exitDy=0;entryX=1;entryY=0.5;entryDx=0;entryDy=0;" edge="1" parent="NLjMdLl4oUd3L64wdZM3-1" source="NLjMdLl4oUd3L64wdZM3-29" target="NLjMdLl4oUd3L64wdZM3-40">
          <mxGeometry relative="1" as="geometry" />
        </mxCell>
        <mxCell id="NLjMdLl4oUd3L64wdZM3-29" value="len2 = len3" style="rhombus;whiteSpace=wrap;html=1;" vertex="1" parent="NLjMdLl4oUd3L64wdZM3-1">
          <mxGeometry x="529" y="550" width="120" height="80" as="geometry" />
        </mxCell>
        <mxCell id="NLjMdLl4oUd3L64wdZM3-30" value="Нет" style="text;html=1;strokeColor=none;fillColor=none;align=center;verticalAlign=middle;whiteSpace=wrap;rounded=0;" vertex="1" parent="NLjMdLl4oUd3L64wdZM3-1">
          <mxGeometry x="509" y="560" width="40" height="20" as="geometry" />
        </mxCell>
        <mxCell id="NLjMdLl4oUd3L64wdZM3-31" value="Да" style="text;html=1;strokeColor=none;fillColor=none;align=center;verticalAlign=middle;whiteSpace=wrap;rounded=0;" vertex="1" parent="NLjMdLl4oUd3L64wdZM3-1">
          <mxGeometry x="629" y="560" width="40" height="20" as="geometry" />
        </mxCell>
        <mxCell id="NLjMdLl4oUd3L64wdZM3-41" style="edgeStyle=orthogonalEdgeStyle;rounded=0;orthogonalLoop=1;jettySize=auto;html=1;exitX=1;exitY=0.5;exitDx=0;exitDy=0;entryX=0;entryY=0.5;entryDx=0;entryDy=0;" edge="1" parent="NLjMdLl4oUd3L64wdZM3-1" source="NLjMdLl4oUd3L64wdZM3-32" target="NLjMdLl4oUd3L64wdZM3-40">
          <mxGeometry relative="1" as="geometry" />
        </mxCell>
        <mxCell id="NLjMdLl4oUd3L64wdZM3-53" style="edgeStyle=orthogonalEdgeStyle;rounded=0;orthogonalLoop=1;jettySize=auto;html=1;exitX=0;exitY=0.5;exitDx=0;exitDy=0;entryX=1;entryY=0.5;entryDx=0;entryDy=0;" edge="1" parent="NLjMdLl4oUd3L64wdZM3-1" source="NLjMdLl4oUd3L64wdZM3-32" target="NLjMdLl4oUd3L64wdZM3-48">
          <mxGeometry relative="1" as="geometry" />
        </mxCell>
        <mxCell id="NLjMdLl4oUd3L64wdZM3-32" value="len1 = len3" style="rhombus;whiteSpace=wrap;html=1;" vertex="1" parent="NLjMdLl4oUd3L64wdZM3-1">
          <mxGeometry x="315" y="550" width="120" height="80" as="geometry" />
        </mxCell>
        <mxCell id="NLjMdLl4oUd3L64wdZM3-33" value="Нет" style="text;html=1;strokeColor=none;fillColor=none;align=center;verticalAlign=middle;whiteSpace=wrap;rounded=0;" vertex="1" parent="NLjMdLl4oUd3L64wdZM3-1">
          <mxGeometry x="295" y="560" width="40" height="20" as="geometry" />
        </mxCell>
        <mxCell id="NLjMdLl4oUd3L64wdZM3-34" value="Да" style="text;html=1;strokeColor=none;fillColor=none;align=center;verticalAlign=middle;whiteSpace=wrap;rounded=0;" vertex="1" parent="NLjMdLl4oUd3L64wdZM3-1">
          <mxGeometry x="415" y="560" width="40" height="20" as="geometry" />
        </mxCell>
        <mxCell id="NLjMdLl4oUd3L64wdZM3-37" value="Треугольник равносторонний" style="rounded=0;whiteSpace=wrap;html=1;" vertex="1" parent="NLjMdLl4oUd3L64wdZM3-1">
          <mxGeometry x="615" y="630" width="120" height="60" as="geometry" />
        </mxCell>
        <mxCell id="NLjMdLl4oUd3L64wdZM3-39" value="Треугольник равнобедренный" style="rounded=0;whiteSpace=wrap;html=1;" vertex="1" parent="NLjMdLl4oUd3L64wdZM3-1">
          <mxGeometry x="425" y="630" width="120" height="60" as="geometry" />
        </mxCell>
        <mxCell id="NLjMdLl4oUd3L64wdZM3-43" style="edgeStyle=orthogonalEdgeStyle;rounded=0;orthogonalLoop=1;jettySize=auto;html=1;exitX=0.5;exitY=1;exitDx=0;exitDy=0;entryX=0.5;entryY=0;entryDx=0;entryDy=0;" edge="1" parent="NLjMdLl4oUd3L64wdZM3-1" source="NLjMdLl4oUd3L64wdZM3-40" target="NLjMdLl4oUd3L64wdZM3-39">
          <mxGeometry relative="1" as="geometry" />
        </mxCell>
        <mxCell id="NLjMdLl4oUd3L64wdZM3-40" value="" style="ellipse;whiteSpace=wrap;html=1;aspect=fixed;" vertex="1" parent="NLjMdLl4oUd3L64wdZM3-1">
          <mxGeometry x="465" y="570" width="40" height="40" as="geometry" />
        </mxCell>
        <mxCell id="NLjMdLl4oUd3L64wdZM3-47" value="Вывод&lt;br&gt;Такой треугольник не существует" style="shape=parallelogram;perimeter=parallelogramPerimeter;whiteSpace=wrap;html=1;fixedSize=1;" vertex="1" parent="NLjMdLl4oUd3L64wdZM3-1">
          <mxGeometry x="93" y="630" width="152" height="60" as="geometry" />
        </mxCell>
        <mxCell id="NLjMdLl4oUd3L64wdZM3-49" style="edgeStyle=orthogonalEdgeStyle;rounded=0;orthogonalLoop=1;jettySize=auto;html=1;exitX=0.5;exitY=1;exitDx=0;exitDy=0;entryX=0.5;entryY=0;entryDx=0;entryDy=0;" edge="1" parent="NLjMdLl4oUd3L64wdZM3-1" source="NLjMdLl4oUd3L64wdZM3-48" target="NLjMdLl4oUd3L64wdZM3-47">
          <mxGeometry relative="1" as="geometry" />
        </mxCell>
        <mxCell id="NLjMdLl4oUd3L64wdZM3-48" value="" style="ellipse;whiteSpace=wrap;html=1;aspect=fixed;" vertex="1" parent="NLjMdLl4oUd3L64wdZM3-1">
          <mxGeometry x="149" y="570" width="40" height="40" as="geometry" />
        </mxCell>
        <mxCell id="_8K6ZxulBQz2DmUAfy89-0" value="Task 6&lt;br&gt;&lt;h3 style=&quot;box-sizing: border-box ; font-family: &amp;#34;roboto&amp;#34; , &amp;#34;san francisco&amp;#34; , &amp;#34;helvetica neue&amp;#34; , &amp;#34;helvetica&amp;#34; , &amp;#34;arial&amp;#34; ; font-weight: 500 ; line-height: 24px ; color: rgb(63 , 83 , 104) ; margin-top: 20px ; margin-bottom: 10px ; font-size: 17px ; background-color: rgb(255 , 255 , 255)&quot;&gt;По длинам трех отрезков, введенных пользователем, определить возможность существования треугольника, составленного из этих отрезков. Если такой треугольник существует, то определить, является ли он разносторонним, равнобедренным или равносторонним.&lt;/h3&gt;" style="text;html=1;strokeColor=none;fillColor=none;align=center;verticalAlign=middle;whiteSpace=wrap;rounded=0;" vertex="1" parent="NLjMdLl4oUd3L64wdZM3-1">
          <mxGeometry x="454" y="10" width="230" height="350" as="geometry" />
        </mxCell>
      </root>
    </mxGraphModel>
  </diagram>
  <diagram id="T9ceQ-WDEsOJTAVyk326" name="Task_8">
    <mxGraphModel dx="1038" dy="580" grid="1" gridSize="10" guides="1" tooltips="1" connect="1" arrows="1" fold="1" page="1" pageScale="1" pageWidth="827" pageHeight="1169" math="0" shadow="0">
      <root>
        <mxCell id="5uWs7Ksjy5dbSYMgba5Y-0" />
        <mxCell id="5uWs7Ksjy5dbSYMgba5Y-1" parent="5uWs7Ksjy5dbSYMgba5Y-0" />
        <mxCell id="5uWs7Ksjy5dbSYMgba5Y-16" style="edgeStyle=orthogonalEdgeStyle;rounded=0;orthogonalLoop=1;jettySize=auto;html=1;exitX=0.5;exitY=1;exitDx=0;exitDy=0;entryX=0.5;entryY=0;entryDx=0;entryDy=0;" edge="1" parent="5uWs7Ksjy5dbSYMgba5Y-1" source="5uWs7Ksjy5dbSYMgba5Y-2" target="5uWs7Ksjy5dbSYMgba5Y-3">
          <mxGeometry relative="1" as="geometry" />
        </mxCell>
        <mxCell id="5uWs7Ksjy5dbSYMgba5Y-2" value="Начало" style="ellipse;whiteSpace=wrap;html=1;" vertex="1" parent="5uWs7Ksjy5dbSYMgba5Y-1">
          <mxGeometry x="354" y="10" width="120" height="40" as="geometry" />
        </mxCell>
        <mxCell id="5uWs7Ksjy5dbSYMgba5Y-17" style="edgeStyle=orthogonalEdgeStyle;rounded=0;orthogonalLoop=1;jettySize=auto;html=1;exitX=0.5;exitY=1;exitDx=0;exitDy=0;entryX=0.5;entryY=0;entryDx=0;entryDy=0;" edge="1" parent="5uWs7Ksjy5dbSYMgba5Y-1" source="5uWs7Ksjy5dbSYMgba5Y-3" target="5uWs7Ksjy5dbSYMgba5Y-4">
          <mxGeometry relative="1" as="geometry" />
        </mxCell>
        <mxCell id="5uWs7Ksjy5dbSYMgba5Y-3" value="Вывод&lt;br&gt;введите поочередно три числа и я найду среднее из них (не максимальное/минимальное)" style="shape=parallelogram;perimeter=parallelogramPerimeter;whiteSpace=wrap;html=1;fixedSize=1;" vertex="1" parent="5uWs7Ksjy5dbSYMgba5Y-1">
          <mxGeometry x="278" y="70" width="272" height="60" as="geometry" />
        </mxCell>
        <mxCell id="5uWs7Ksjy5dbSYMgba5Y-18" style="edgeStyle=orthogonalEdgeStyle;rounded=0;orthogonalLoop=1;jettySize=auto;html=1;exitX=0.5;exitY=1;exitDx=0;exitDy=0;entryX=0.5;entryY=0;entryDx=0;entryDy=0;" edge="1" parent="5uWs7Ksjy5dbSYMgba5Y-1" source="5uWs7Ksjy5dbSYMgba5Y-4" target="5uWs7Ksjy5dbSYMgba5Y-5">
          <mxGeometry relative="1" as="geometry" />
        </mxCell>
        <mxCell id="5uWs7Ksjy5dbSYMgba5Y-4" value="Ввод&lt;br&gt;a, b, c" style="shape=parallelogram;perimeter=parallelogramPerimeter;whiteSpace=wrap;html=1;fixedSize=1;" vertex="1" parent="5uWs7Ksjy5dbSYMgba5Y-1">
          <mxGeometry x="354" y="150" width="120" height="60" as="geometry" />
        </mxCell>
        <mxCell id="5uWs7Ksjy5dbSYMgba5Y-14" style="edgeStyle=orthogonalEdgeStyle;rounded=0;orthogonalLoop=1;jettySize=auto;html=1;exitX=1;exitY=0.5;exitDx=0;exitDy=0;entryX=0.5;entryY=0;entryDx=0;entryDy=0;" edge="1" parent="5uWs7Ksjy5dbSYMgba5Y-1" source="5uWs7Ksjy5dbSYMgba5Y-5" target="5uWs7Ksjy5dbSYMgba5Y-8">
          <mxGeometry relative="1" as="geometry" />
        </mxCell>
        <mxCell id="5uWs7Ksjy5dbSYMgba5Y-25" style="edgeStyle=orthogonalEdgeStyle;rounded=0;orthogonalLoop=1;jettySize=auto;html=1;exitX=0;exitY=0.5;exitDx=0;exitDy=0;entryX=0.563;entryY=-0.05;entryDx=0;entryDy=0;entryPerimeter=0;" edge="1" parent="5uWs7Ksjy5dbSYMgba5Y-1" source="5uWs7Ksjy5dbSYMgba5Y-5" target="5uWs7Ksjy5dbSYMgba5Y-20">
          <mxGeometry relative="1" as="geometry" />
        </mxCell>
        <mxCell id="5uWs7Ksjy5dbSYMgba5Y-5" value="a == MAX(a,b,c)&lt;br&gt;ИЛИ&lt;br&gt;a ==MIN(a,b,c)" style="rhombus;whiteSpace=wrap;html=1;" vertex="1" parent="5uWs7Ksjy5dbSYMgba5Y-1">
          <mxGeometry x="328" y="230" width="172" height="80" as="geometry" />
        </mxCell>
        <mxCell id="5uWs7Ksjy5dbSYMgba5Y-6" value="Нет" style="text;html=1;strokeColor=none;fillColor=none;align=center;verticalAlign=middle;whiteSpace=wrap;rounded=0;" vertex="1" parent="5uWs7Ksjy5dbSYMgba5Y-1">
          <mxGeometry x="320" y="240" width="40" height="20" as="geometry" />
        </mxCell>
        <mxCell id="5uWs7Ksjy5dbSYMgba5Y-7" value="Да" style="text;html=1;strokeColor=none;fillColor=none;align=center;verticalAlign=middle;whiteSpace=wrap;rounded=0;" vertex="1" parent="5uWs7Ksjy5dbSYMgba5Y-1">
          <mxGeometry x="470" y="240" width="40" height="20" as="geometry" />
        </mxCell>
        <mxCell id="5uWs7Ksjy5dbSYMgba5Y-23" style="edgeStyle=orthogonalEdgeStyle;rounded=0;orthogonalLoop=1;jettySize=auto;html=1;exitX=0;exitY=0.5;exitDx=0;exitDy=0;entryX=0.5;entryY=0;entryDx=0;entryDy=0;" edge="1" parent="5uWs7Ksjy5dbSYMgba5Y-1" source="5uWs7Ksjy5dbSYMgba5Y-8" target="5uWs7Ksjy5dbSYMgba5Y-21">
          <mxGeometry relative="1" as="geometry" />
        </mxCell>
        <mxCell id="5uWs7Ksjy5dbSYMgba5Y-24" style="edgeStyle=orthogonalEdgeStyle;rounded=0;orthogonalLoop=1;jettySize=auto;html=1;exitX=1;exitY=0.5;exitDx=0;exitDy=0;entryX=0.592;entryY=-0.003;entryDx=0;entryDy=0;entryPerimeter=0;" edge="1" parent="5uWs7Ksjy5dbSYMgba5Y-1" source="5uWs7Ksjy5dbSYMgba5Y-8" target="5uWs7Ksjy5dbSYMgba5Y-22">
          <mxGeometry relative="1" as="geometry" />
        </mxCell>
        <mxCell id="5uWs7Ksjy5dbSYMgba5Y-8" value="b == MAX(a,b,c)&lt;br&gt;ИЛИ&lt;br&gt;b ==MIN(a,b,c)" style="rhombus;whiteSpace=wrap;html=1;" vertex="1" parent="5uWs7Ksjy5dbSYMgba5Y-1">
          <mxGeometry x="438" y="310" width="172" height="80" as="geometry" />
        </mxCell>
        <mxCell id="5uWs7Ksjy5dbSYMgba5Y-9" value="Нет" style="text;html=1;strokeColor=none;fillColor=none;align=center;verticalAlign=middle;whiteSpace=wrap;rounded=0;" vertex="1" parent="5uWs7Ksjy5dbSYMgba5Y-1">
          <mxGeometry x="430" y="320" width="40" height="20" as="geometry" />
        </mxCell>
        <mxCell id="5uWs7Ksjy5dbSYMgba5Y-10" value="Да" style="text;html=1;strokeColor=none;fillColor=none;align=center;verticalAlign=middle;whiteSpace=wrap;rounded=0;" vertex="1" parent="5uWs7Ksjy5dbSYMgba5Y-1">
          <mxGeometry x="580" y="320" width="40" height="20" as="geometry" />
        </mxCell>
        <mxCell id="5uWs7Ksjy5dbSYMgba5Y-28" style="edgeStyle=orthogonalEdgeStyle;rounded=0;orthogonalLoop=1;jettySize=auto;html=1;exitX=0.5;exitY=1;exitDx=0;exitDy=0;" edge="1" parent="5uWs7Ksjy5dbSYMgba5Y-1" source="5uWs7Ksjy5dbSYMgba5Y-20" target="5uWs7Ksjy5dbSYMgba5Y-26">
          <mxGeometry relative="1" as="geometry">
            <Array as="points">
              <mxPoint x="300" y="460" />
              <mxPoint x="414" y="460" />
            </Array>
          </mxGeometry>
        </mxCell>
        <mxCell id="5uWs7Ksjy5dbSYMgba5Y-20" value="Вывод&lt;br&gt;Среднее - a" style="shape=parallelogram;perimeter=parallelogramPerimeter;whiteSpace=wrap;html=1;fixedSize=1;" vertex="1" parent="5uWs7Ksjy5dbSYMgba5Y-1">
          <mxGeometry x="240" y="310" width="120" height="60" as="geometry" />
        </mxCell>
        <mxCell id="5uWs7Ksjy5dbSYMgba5Y-27" style="edgeStyle=orthogonalEdgeStyle;rounded=0;orthogonalLoop=1;jettySize=auto;html=1;exitX=0.5;exitY=1;exitDx=0;exitDy=0;entryX=0.5;entryY=0;entryDx=0;entryDy=0;" edge="1" parent="5uWs7Ksjy5dbSYMgba5Y-1" source="5uWs7Ksjy5dbSYMgba5Y-21" target="5uWs7Ksjy5dbSYMgba5Y-26">
          <mxGeometry relative="1" as="geometry" />
        </mxCell>
        <mxCell id="5uWs7Ksjy5dbSYMgba5Y-21" value="Вывод&lt;br&gt;Среднее - b" style="shape=parallelogram;perimeter=parallelogramPerimeter;whiteSpace=wrap;html=1;fixedSize=1;" vertex="1" parent="5uWs7Ksjy5dbSYMgba5Y-1">
          <mxGeometry x="354" y="380" width="120" height="60" as="geometry" />
        </mxCell>
        <mxCell id="5uWs7Ksjy5dbSYMgba5Y-29" style="edgeStyle=orthogonalEdgeStyle;rounded=0;orthogonalLoop=1;jettySize=auto;html=1;exitX=0.5;exitY=1;exitDx=0;exitDy=0;entryX=0.5;entryY=0;entryDx=0;entryDy=0;" edge="1" parent="5uWs7Ksjy5dbSYMgba5Y-1" source="5uWs7Ksjy5dbSYMgba5Y-22" target="5uWs7Ksjy5dbSYMgba5Y-26">
          <mxGeometry relative="1" as="geometry" />
        </mxCell>
        <mxCell id="5uWs7Ksjy5dbSYMgba5Y-22" value="Вывод&lt;br&gt;Среднее - c" style="shape=parallelogram;perimeter=parallelogramPerimeter;whiteSpace=wrap;html=1;fixedSize=1;" vertex="1" parent="5uWs7Ksjy5dbSYMgba5Y-1">
          <mxGeometry x="560" y="380" width="120" height="60" as="geometry" />
        </mxCell>
        <mxCell id="5uWs7Ksjy5dbSYMgba5Y-26" value="Конец" style="ellipse;whiteSpace=wrap;html=1;" vertex="1" parent="5uWs7Ksjy5dbSYMgba5Y-1">
          <mxGeometry x="354" y="480" width="120" height="40" as="geometry" />
        </mxCell>
        <mxCell id="JXJa8VTnG-TslGOFJQ7m-0" value="Task 8&lt;br&gt;&lt;h3 style=&quot;box-sizing: border-box ; font-family: &amp;#34;roboto&amp;#34; , &amp;#34;san francisco&amp;#34; , &amp;#34;helvetica neue&amp;#34; , &amp;#34;helvetica&amp;#34; , &amp;#34;arial&amp;#34; ; font-weight: 500 ; line-height: 24px ; color: rgb(63 , 83 , 104) ; margin-top: 20px ; margin-bottom: 10px ; font-size: 17px ; background-color: rgb(255 , 255 , 255)&quot;&gt;Вводятся три разных числа. Найти, какое из них является средним (больше одного, но меньше другого).&lt;/h3&gt;" style="text;html=1;strokeColor=none;fillColor=none;align=center;verticalAlign=middle;whiteSpace=wrap;rounded=0;" vertex="1" parent="5uWs7Ksjy5dbSYMgba5Y-1">
          <mxGeometry x="20" y="10" width="230" height="180" as="geometry" />
        </mxCell>
      </root>
    </mxGraphModel>
  </diagram>
</mxfile>
